<svg xmlns="http://www.w3.org/2000/svg" width="137.697" height="31.132" viewBox="0 0 137.697 31.132">
  <g id="组_1600" data-name="组 1600" transform="translate(0.053 0.012)">
    <rect id="矩形_1094" data-name="矩形 1094" width="0.479" height="25.105" transform="translate(40.15 3.001)" fill="#f2f2f2"/>
    <path id="路径_234" data-name="路径 234" d="M75.983,24.759c.084.083.262.292.119.424a14.305,14.305,0,0,1-6.229,1.874c-.347-.076.176-1,.347-1.08a.315.315,0,0,1,.043-.012,11.548,11.548,0,0,0,5.028-1.513c.222-.072.585.2.692.308" transform="translate(-61.073 -21.392)" fill="#f2f2f2"/>
    <path id="路径_235" data-name="路径 235" d="M46.694,31.131c-.1.181-.255.4-.42.431a5.559,5.559,0,0,1-1.043-.169,2.165,2.165,0,0,1-1.39-.9c-.014-.253.961-.951,1.037-.884A1.747,1.747,0,0,0,46,30.336a4.486,4.486,0,0,0,.842.136c.163.073-.145.653-.148.659" transform="translate(-38.4 -25.909)" fill="#f2f2f2"/>
    <path id="路径_236" data-name="路径 236" d="M121.83-.01c.113,0,.489.027.575.122.272.854-.383,2-1.919,3.108-.384.17-1.054-.466-1.005-.592a.144.144,0,0,1,.023-.03c1.24-.891,1.769-1.819,1.549-2.509.036-.086.517-.11.777-.1" transform="translate(-104.572 0)" fill="#f2f2f2"/>
    <path id="路径_237" data-name="路径 237" d="M108.643,31.477c.1.089.328.318.169.509q-.393.318-.853.634a19.631,19.631,0,0,1-4.737,2.316c-.535.094-.692-.752-.486-1.017a.388.388,0,0,1,.116-.086,17.329,17.329,0,0,0,4.182-2.044q.406-.278.753-.56c.292-.156.749.156.856.248" transform="translate(-89.849 -27.294)" fill="#f2f2f2"/>
    <path id="路径_238" data-name="路径 238" d="M28.47,50.5c-.282.536-.43.486-.977.3a2.994,2.994,0,0,1-1.8-1.244c-.07-.316.656-1.1.8-1.059.093.024.136.178.191.257a3.088,3.088,0,0,0,1.867.973c.246.129-.074.764-.078.771" transform="translate(-22.515 -42.443)" fill="#f2f2f2"/>
    <path id="路径_239" data-name="路径 239" d="M58.042,56.132c.039.52-.135.557-.974.731a15.811,15.811,0,0,1-4.464.4c-.383-.112-.048-.98.286-1.181a.36.36,0,0,1,.126-.039,14.46,14.46,0,0,0,4.561-.507c.346-.03.454.461.464.594" transform="translate(-45.918 -48.598)" fill="#f2f2f2"/>
    <path id="路径_240" data-name="路径 240" d="M151.986,2.41c.108.028.469.131.564.275.288.9-.138,2.033-1.251,3.2-.381.259-1.222-.386-1.16-.612a.241.241,0,0,1,.025-.044c.982-1.029,1.358-2.027,1.1-2.824l0-.027c.154-.11.709.031.714.033" transform="translate(-131.393 -2.053)" fill="#f2f2f2"/>
    <path id="路径_241" data-name="路径 241" d="M180.571,9.773a1.412,1.412,0,0,1,.533.414,3.459,3.459,0,0,1-.7,2.964c-.353.333-1.18-.46-1.138-.7a.34.34,0,0,1,.022-.056,3.191,3.191,0,0,0,.644-2.734V9.631c.118-.115.616.132.637.142" transform="translate(-156.878 -8.409)" fill="#f2f2f2"/>
    <path id="路径_242" data-name="路径 242" d="M190.625,21.958a1.839,1.839,0,0,1,.48.534c.477,1.5-.378,3.42-2.51,5.364-.5.333-1.1-.43-.978-.861a.507.507,0,0,1,.093-.155c2.024-1.845,2.835-3.669,2.382-5.091l0-.039c.036-.021.133-.076.538.248" transform="translate(-164.169 -18.989)" fill="#f2f2f2"/>
    <path id="路径_243" data-name="路径 243" d="M89.149,59.969a.489.489,0,0,1-.089.659,27.032,27.032,0,0,1-8.62,3.126c-.584.02-.608-.812-.34-1.137a.451.451,0,0,1,.236-.151,24.938,24.938,0,0,0,7.952-2.884c.435-.178.79.26.861.386" transform="translate(-69.978 -52.1)" fill="#f2f2f2"/>
    <path id="路径_244" data-name="路径 244" d="M14.8,72.686c-.057.136-.216.449-.471.421a3.738,3.738,0,0,1-2.214-1.556c-.121-.378.422-1.239.565-1.183.01,0,.019.017.027.024a3.449,3.449,0,0,0,2.042,1.435c.274.158.11.716.051.857" transform="translate(-10.627 -61.571)" fill="#f2f2f2"/>
    <path id="路径_245" data-name="路径 245" d="M43.5,85.2a.625.625,0,0,1-.439.569,15.125,15.125,0,0,1-3.471-.049c-.492-.166-.158-1.111.161-1.273a.4.4,0,0,1,.149-.03,13.962,13.962,0,0,0,3.2.045c.474.031.4.732.4.739" transform="translate(-34.461 -73.861)" fill="#f2f2f2"/>
    <path id="路径_246" data-name="路径 246" d="M160.489,39.643c.1.1.332.36.18.6a13.838,13.838,0,0,1-1.947,1.666c-.561.291-1.121-.494-1-.831a.424.424,0,0,1,.1-.133,12.772,12.772,0,0,0,1.8-1.537c.294-.211.76.136.868.24" transform="translate(-138.018 -34.424)" fill="#f2f2f2"/>
    <path id="路径_247" data-name="路径 247" d="M80.842,236.62c.044.16-.213.227-.3.248a15.381,15.381,0,0,1-6.77.1q-.252-.068-.48-.148c-.458-.181-1.069-.425-1.518-.629l.064.029a6.679,6.679,0,0,0,.993.349,16.588,16.588,0,0,0,7.3-.113c.5-.077.686.106.708.159" transform="translate(-62.841 -206.649)" fill="#f2f2f2"/>
    <path id="路径_248" data-name="路径 248" d="M164.909,182.217c-.043.074-.2.337-.377.608a11.344,11.344,0,0,1-3.024,2.857,24.2,24.2,0,0,1-6.647,3.091c-.5.124-.668-.079-.586-.226a.654.654,0,0,1,.345-.224,26.106,26.106,0,0,0,7.168-3.333,12.232,12.232,0,0,0,3.261-3.08l.05-.067a1.468,1.468,0,0,1-.189.375" transform="translate(-134.997 -159.096)" fill="#f2f2f2"/>
    <path id="路径_249" data-name="路径 249" d="M115.073,233.81a1.034,1.034,0,0,1-.389.254,17.826,17.826,0,0,1-7.4,1.522c-.333-.025-.776-.057-1.108-.094l-.88-.13a18.471,18.471,0,0,0,9.485-1.584.573.573,0,0,1,.289-.062l.026.061c-.007.009-.014.024-.021.034" transform="translate(-92.163 -204.478)" fill="#f2f2f2"/>
    <path id="路径_250" data-name="路径 250" d="M193.629,207.781q-.4.327-.869.651a15.682,15.682,0,0,1-1.39.846c-.165.084-.177.077-.212.056a1.206,1.206,0,0,1,.5-.435,14.192,14.192,0,0,0,3.567-2.652,17.379,17.379,0,0,1-1.6,1.534" transform="translate(-167.281 -180.447)" fill="#f2f2f2"/>
    <path id="路径_251" data-name="路径 251" d="M128.824,161.713a3.546,3.546,0,0,1-.265.637,13.377,13.377,0,0,1-3.624,3.453,29.8,29.8,0,0,1-12.274,4.619c-.63.044-.949-.312-.832-.5a.45.45,0,0,1,.307-.15,31.293,31.293,0,0,0,12.889-4.85,14.106,14.106,0,0,0,3.761-3.553l.07-.078c.048.157.048.157-.032.42" transform="translate(-97.86 -141.119)" fill="#f2f2f2"/>
    <path id="路径_252" data-name="路径 252" d="M63.76,227.067c.05.085.086.232-.247.269a13.847,13.847,0,0,1-4.118-.374q-.207-.056-.4-.119a2.488,2.488,0,0,1-.988-.65l.025-.035a.641.641,0,0,1,.112.02q.2.066.42.125a14.537,14.537,0,0,0,4.323.393,1.1,1.1,0,0,1,.873.371" transform="translate(-50.793 -197.866)" fill="#f2f2f2"/>
    <path id="路径_253" data-name="路径 253" d="M217.356,38.506a2.972,2.972,0,0,1,.408.64c.408,1.28-.07,2.842-1.4,4.479-.387.347-.868-.377-.859-.808a.5.5,0,0,1,.085-.275c1.295-1.587,1.758-3.1,1.363-4.344l-.008-.043.031-.023c.037.018.137.067.385.374" transform="translate(-188.578 -33.371)" fill="#f2f2f2"/>
    <path id="路径_254" data-name="路径 254" d="M54.554,110.124a.62.62,0,0,1-.446.628,23.166,23.166,0,0,1-4.32.382c-.665-.1-.514-1.1-.16-1.3a.542.542,0,0,1,.182-.05,21.984,21.984,0,0,0,4.1-.363c.613-.03.644.693.644.7" transform="translate(-43.2 -95.74)" fill="#e95514"/>
    <path id="路径_255" data-name="路径 255" d="M8.227,97.354c-.036.178-.144.477-.466.482a10.8,10.8,0,0,1-1.321-.265,4.63,4.63,0,0,1-2.973-1.929c-.172-.443.168-1.334.307-1.26.011.006.02.022.028.031a4.395,4.395,0,0,0,2.822,1.831,10.263,10.263,0,0,0,1.254.252c.472.143.351.852.349.859" transform="translate(-3.037 -82.577)" fill="#e95514"/>
    <path id="路径_256" data-name="路径 256" d="M7.324,123.133a.513.513,0,0,1-.461.532,14.356,14.356,0,0,1-3.534-.441A5.088,5.088,0,0,1,.062,121.1a2.111,2.111,0,0,1-.025-1.291l.054-.007.028.036A4.935,4.935,0,0,0,3.289,121.9a13.926,13.926,0,0,0,3.428.428c.61.083.608.8.607.808" transform="translate(0 -104.824)" fill="#e95514"/>
    <path id="路径_257" data-name="路径 257" d="M14.247,173.978c.037.146.048.389-.3.379a12.336,12.336,0,0,1-1.507-.3,5.28,5.28,0,0,1-3.391-2.2q-.046-.083-.09-.168l-.37-.762a2.744,2.744,0,0,1-.112-.269l.036.044a5.324,5.324,0,0,0,3.419,2.218,12.432,12.432,0,0,0,1.519.3,1.166,1.166,0,0,1,.791.755" transform="translate(-7.466 -149.31)" fill="#e95514"/>
    <path id="路径_258" data-name="路径 258" d="M89.176,181.7c.014.13,0,.452-.467.639a33.03,33.03,0,0,1-6.466,1.279c-.764,0-1.027-.738-.757-1.005a.544.544,0,0,1,.3-.129A33.315,33.315,0,0,0,88.3,181.19a.668.668,0,0,1,.872.506" transform="translate(-71.244 -158.506)" fill="#e95514"/>
    <path id="路径_259" data-name="路径 259" d="M90.856,203.545c.01.106-.016.372-.457.543a30.026,30.026,0,0,1-7.27,1.285c-.685-.026-1.073-.575-.825-.8a.476.476,0,0,1,.265-.091,30.876,30.876,0,0,0,7.472-1.321c.732-.158.814.379.815.385" transform="translate(-71.984 -177.722)" fill="#e95514"/>
    <path id="路径_260" data-name="路径 260" d="M29.273,198.614c.051.115.087.309-.254.314a12.832,12.832,0,0,1-2.409-.389A5.686,5.686,0,0,1,23.792,197c-.294-.357-.693-.827-.97-1.2a5.494,5.494,0,0,0,3.1,1.838,13.2,13.2,0,0,0,2.476.4,1.208,1.208,0,0,1,.874.578" transform="translate(-20.012 -171.306)" fill="#e95514"/>
    <path id="路径_261" data-name="路径 261" d="M99.641,152.888a.673.673,0,0,1-.448.722,35.994,35.994,0,0,1-5.281,1.366.707.707,0,0,1-.69-1.111.64.64,0,0,1,.317-.169,35.572,35.572,0,0,0,5.222-1.351.684.684,0,0,1,.88.543" transform="translate(-81.474 -133.266)" fill="#e95514"/>
    <path id="路径_262" data-name="路径 262" d="M5.017,148.441c.011.133,0,.435-.308.382a5,5,0,0,1-2.961-2.08,3.039,3.039,0,0,1-.29-1.309.173.173,0,0,1,.047.05,4.942,4.942,0,0,0,2.928,2.057,1.2,1.2,0,0,1,.583.9" transform="translate(-1.305 -127.244)" fill="#e95514"/>
    <path id="路径_263" data-name="路径 263" d="M110.446,72.26a.57.57,0,0,1-.091.735q-.2.145-.411.289a30.108,30.108,0,0,1-9.273,4.1c-.689.093-.853-.761-.583-1.117a.558.558,0,0,1,.27-.186,28.58,28.58,0,0,0,8.8-3.889q.2-.137.39-.274c.521-.281.893.339.9.345" transform="translate(-87.5 -62.862)" fill="#e95514"/>
    <path id="路径_264" data-name="路径 264" d="M94.108,83.675a.717.717,0,0,1-.066.783,20.029,20.029,0,0,1-2.206,1.735,33.78,33.78,0,0,1-13.912,5.235.72.72,0,0,1-.55-1.177.57.57,0,0,1,.3-.156,32.761,32.761,0,0,0,13.493-5.077,19.429,19.429,0,0,0,2.139-1.682c.46-.319.8.334.8.34" transform="translate(-67.598 -72.839)" fill="#e95514"/>
    <path id="路径_265" data-name="路径 265" d="M224.271,85.236l.058.31c.084.925.28,3.091-3.811,6.453-.477.311-.686-.219-.617-.623a.976.976,0,0,1,.3-.565c3.021-2.435,4.308-4.9,3.776-6.8l.293,1.225" transform="translate(-192.416 -73.508)" fill="#f2f2f2"/>
    <path id="路径_266" data-name="路径 266" d="M160.988,149.743a.919.919,0,0,1-.4.8,32.777,32.777,0,0,1-6.054,3.021c-.741.209-.975-.423-.771-.81a.744.744,0,0,1,.388-.341,33.049,33.049,0,0,0,6.1-3.046.454.454,0,0,1,.729.372" transform="translate(-134.507 -130.612)" fill="#f2f2f2"/>
    <path id="路径_267" data-name="路径 267" d="M172.943,115.586c-.009.415-.009.97-.036,1.384-.133,1.877-1.815,4.146-4.977,6.313a30.376,30.376,0,0,1-6.306,3.242c-.7.207-.885-.312-.675-.645a.81.81,0,0,1,.385-.306,31.227,31.227,0,0,0,6.482-3.332c3.442-2.359,5.178-4.835,5.124-6.826l0,.169" transform="translate(-140.781 -100.984)" fill="#f2f2f2"/>
    <path id="路径_268" data-name="路径 268" d="M162.423,119.011a.834.834,0,0,1-.271.84q-.23.166-.472.331a31.287,31.287,0,0,1-5.42,2.93.654.654,0,0,1-.827-.891.707.707,0,0,1,.366-.366,30.935,30.935,0,0,0,5.36-2.9q.239-.163.466-.328c.591-.335.8.374.8.381" transform="translate(-135.98 -103.716)" fill="#f2f2f2"/>
    <path id="路径_269" data-name="路径 269" d="M221.252,59.25a7.9,7.9,0,0,1,.318.73c.547,1.717-.432,3.92-2.872,6.147-.481.339-.8-.33-.744-.778a.7.7,0,0,1,.2-.427c2.414-2.2,3.382-4.382,2.841-6.079l-.012-.044c.081.077.1.091.273.452" transform="translate(-190.717 -51.45)" fill="#f2f2f2"/>
    <g id="组_337" data-name="组 337" transform="translate(48.837 4.189)">
      <g id="组_335" data-name="组 335">
        <g id="组_328" data-name="组 328" transform="translate(0 0.129)">
          <path id="路径_270" data-name="路径 270" d="M425.717,35.324a7.862,7.862,0,0,0-3.521-.733h-.571v2.072h.358a4.482,4.482,0,0,1,3.131,1.011,3.657,3.657,0,0,1,1.108,2.846,3.635,3.635,0,0,1-1.108,2.829,4.482,4.482,0,0,1-3.131,1.011h-.358v2.122h.571a7.714,7.714,0,0,0,3.521-.749,5.31,5.31,0,0,0,2.261-2.1,6.627,6.627,0,0,0,0-6.24A5.224,5.224,0,0,0,425.717,35.324Z" transform="translate(-417.744 -34.591)" fill="#f2f2f2"/>
          <rect id="矩形_1095" data-name="矩形 1095" width="2.489" height="11.89" transform="translate(0 0)" fill="#f2f2f2"/>
        </g>
        <g id="组_329" data-name="组 329" transform="translate(12.504)">
          <path id="路径_271" data-name="路径 271" d="M494.86,43.021a3.294,3.294,0,0,1-1.3-1.356,4.763,4.763,0,0,1,0-4.126,3.3,3.3,0,0,1,1.3-1.356,3.617,3.617,0,0,1,1.237-.413V33.562a6.4,6.4,0,0,0-2.488.735,5.773,5.773,0,0,0-2.253,2.164,6.41,6.41,0,0,0,0,6.29,5.751,5.751,0,0,0,2.253,2.172,6.392,6.392,0,0,0,2.488.735V43.435A3.61,3.61,0,0,1,494.86,43.021Z" transform="translate(-490.532 -33.562)" fill="#f2f2f2"/>
          <path id="路径_272" data-name="路径 272" d="M548.615,34.3a6.405,6.405,0,0,0-2.488-.735v2.209a3.622,3.622,0,0,1,1.237.413,3.3,3.3,0,0,1,1.3,1.356,4.765,4.765,0,0,1,0,4.126,3.3,3.3,0,0,1-1.3,1.356,3.614,3.614,0,0,1-1.237.413V45.66a6.4,6.4,0,0,0,2.488-.735,5.75,5.75,0,0,0,2.252-2.172,6.408,6.408,0,0,0,0-6.29A5.772,5.772,0,0,0,548.615,34.3Z" transform="translate(-539.17 -33.562)" fill="#f2f2f2"/>
        </g>
        <g id="组_330" data-name="组 330" transform="translate(26.517)">
          <path id="路径_273" data-name="路径 273" d="M606.829,43.021a3.3,3.3,0,0,1-1.3-1.356,4.762,4.762,0,0,1,0-4.126,3.3,3.3,0,0,1,1.3-1.356,3.618,3.618,0,0,1,1.237-.413V33.562a6.4,6.4,0,0,0-2.488.735,5.772,5.772,0,0,0-2.252,2.164,6.409,6.409,0,0,0,0,6.29,5.75,5.75,0,0,0,2.252,2.172,6.392,6.392,0,0,0,2.488.735V43.435A3.611,3.611,0,0,1,606.829,43.021Z" transform="translate(-602.501 -33.562)" fill="#f2f2f2"/>
          <path id="路径_274" data-name="路径 274" d="M660.584,34.3a6.4,6.4,0,0,0-2.488-.735v2.209a3.619,3.619,0,0,1,1.237.413,3.3,3.3,0,0,1,1.3,1.356,4.766,4.766,0,0,1,0,4.126,3.3,3.3,0,0,1-1.3,1.356,3.611,3.611,0,0,1-1.237.413V45.66a6.394,6.394,0,0,0,2.488-.735,5.752,5.752,0,0,0,2.253-2.172,6.411,6.411,0,0,0,0-6.29A5.774,5.774,0,0,0,660.584,34.3Z" transform="translate(-651.139 -33.562)" fill="#f2f2f2"/>
        </g>
        <path id="路径_275" data-name="路径 275" d="M741.395,36.478h3.441v10h2.5v-10H750.8V34.591h-9.4Z" transform="translate(-697.497 -34.462)" fill="#f2f2f2"/>
        <g id="组_332" data-name="组 332" transform="translate(55.335 0.129)">
          <g id="组_331" data-name="组 331" transform="translate(3.887)">
            <path id="路径_276" data-name="路径 276" d="M867.759,115.349h0a.952.952,0,0,0-.952-.952H863.84v1.9h2.967A.952.952,0,0,0,867.759,115.349Z" transform="translate(-863.84 -104.41)" fill="#e95514"/>
            <path id="路径_277" data-name="路径 277" d="M867.759,35.534h0a.943.943,0,0,0-.943-.943H863.84v1.886h2.976A.943.943,0,0,0,867.759,35.534Z" transform="translate(-863.84 -34.591)" fill="#e95514"/>
            <path id="路径_278" data-name="路径 278" d="M867.254,75.2h0a.909.909,0,0,0-.909-.909h-2.5v1.819h2.5A.91.91,0,0,0,867.254,75.2Z" transform="translate(-863.84 -69.324)" fill="#e95514"/>
          </g>
          <rect id="矩形_1096" data-name="矩形 1096" width="2.495" height="11.89" transform="translate(0 0)" fill="#f2f2f2"/>
        </g>
        <g id="组_333" data-name="组 333" transform="translate(64.659 0.035)">
          <path id="路径_279" data-name="路径 279" d="M911.509,43.389a3.2,3.2,0,0,1-1.242-1.348,4.941,4.941,0,0,1,0-4.092,3.2,3.2,0,0,1,1.242-1.347,3.332,3.332,0,0,1,1.068-.4V33.982a6.076,6.076,0,0,0-2.417.725,5.353,5.353,0,0,0-2.12,2.147,6.92,6.92,0,0,0,0,6.282,5.34,5.34,0,0,0,2.128,2.147,6.112,6.112,0,0,0,2.408.724V43.785A3.335,3.335,0,0,1,911.509,43.389Z" transform="translate(-907.287 -33.964)" fill="#f2f2f2"/>
          <path id="路径_280" data-name="路径 280" d="M963.936,99.479a5.387,5.387,0,0,0,2.04-3.116h-2.625a3.294,3.294,0,0,1-1.268,1.516,3.46,3.46,0,0,1-1.4.5V100.6A6.053,6.053,0,0,0,963.936,99.479Z" transform="translate(-954.004 -88.539)" fill="#f2f2f2"/>
          <path id="路径_281" data-name="路径 281" d="M962.083,36.563a3.294,3.294,0,0,1,1.268,1.516h2.625a5.388,5.388,0,0,0-2.04-3.115,6.054,6.054,0,0,0-3.25-1.122v2.217A3.458,3.458,0,0,1,962.083,36.563Z" transform="translate(-954.004 -33.842)" fill="#f2f2f2"/>
        </g>
        <g id="组_334" data-name="组 334" transform="translate(78.43 0.129)">
          <rect id="矩形_1097" data-name="矩形 1097" width="2.499" height="11.89" fill="#f2f2f2"/>
          <path id="路径_282" data-name="路径 282" d="M1052.392,34.591v4.817h-3.966v1.9h3.966v5.171h2.519V34.591Z" transform="translate(-1044.535 -34.591)" fill="#f2f2f2"/>
        </g>
      </g>
      <g id="组_336" data-name="组 336" transform="translate(0 18.284)">
        <path id="路径_283" data-name="路径 283" d="M391.346,180.672v1.316h1.671v.541h-1.671v1.346h1.864v.572h-2.6v-4.341h2.6v.566Z" transform="translate(-390.613 -180.051)" fill="#f2f2f2"/>
        <path id="路径_284" data-name="路径 284" d="M421.182,184.447l-1.086-1.6-.971,1.6h-.842l1.408-2.213-1.44-2.127h.874l1.067,1.574.964-1.574H422l-1.4,2.177,1.459,2.164Z" transform="translate(-414.791 -180.051)" fill="#f2f2f2"/>
        <path id="路径_285" data-name="路径 285" d="M457.666,182.762v1.685h-.733v-4.341h1.543a1.711,1.711,0,0,1,1.18.357,1.25,1.25,0,0,1,.4.978,1.219,1.219,0,0,1-.405.968,1.727,1.727,0,0,1-1.17.354Zm1.639-1.322a.718.718,0,0,0-.215-.563,1.018,1.018,0,0,0-.691-.194h-.733v1.506h.733Q459.305,182.19,459.305,181.44Z" transform="translate(-448.633 -180.051)" fill="#f2f2f2"/>
        <path id="路径_286" data-name="路径 286" d="M491.622,183.9h1.569v.547h-2.3v-4.341h.733Z" transform="translate(-478.34 -180.051)" fill="#f2f2f2"/>
        <path id="路径_287" data-name="路径 287" d="M519.964,179.947a2.068,2.068,0,0,1,.8.79,2.393,2.393,0,0,1,0,2.293,2.09,2.09,0,0,1-.8.793,2.433,2.433,0,0,1-2.289,0,2.11,2.11,0,0,1-.807-.793,2.37,2.37,0,0,1,0-2.293,2.088,2.088,0,0,1,.807-.79,2.456,2.456,0,0,1,2.289,0Zm-1.919.559a1.323,1.323,0,0,0-.53.547,1.912,1.912,0,0,0,0,1.66,1.323,1.323,0,0,0,.53.547,1.566,1.566,0,0,0,.778.19,1.535,1.535,0,0,0,.768-.19,1.33,1.33,0,0,0,.527-.547,1.91,1.91,0,0,0,0-1.66,1.331,1.331,0,0,0-.527-.547,1.535,1.535,0,0,0-.768-.191A1.566,1.566,0,0,0,518.045,180.506Z" transform="translate(-500.81 -179.664)" fill="#f2f2f2"/>
        <path id="路径_288" data-name="路径 288" d="M564.627,184.447l-1.131-1.734h-.521v1.734h-.733v-4.341h1.6a1.707,1.707,0,0,1,1.18.363,1.23,1.23,0,0,1,.4.959,1.188,1.188,0,0,1-.3.836,1.445,1.445,0,0,1-.865.418l1.189,1.765Zm-1.652-2.232h.81q.887,0,.887-.75a.721.721,0,0,0-.215-.556.963.963,0,0,0-.672-.2h-.81Z" transform="translate(-540.764 -180.051)" fill="#f2f2f2"/>
        <path id="路径_289" data-name="路径 289" d="M597.6,180.672v1.316h1.671v.541H597.6v1.346h1.865v.572h-2.6v-4.341h2.6v.566Z" transform="translate(-571.055 -180.051)" fill="#f2f2f2"/>
        <path id="路径_290" data-name="路径 290" d="M643.643,180.106v.566h-1.267v3.775h-.739v-3.775h-1.26v-.566Z" transform="translate(-609.12 -180.051)" fill="#f2f2f2"/>
        <path id="路径_291" data-name="路径 291" d="M677.129,184.447,676,182.713h-.521v1.734h-.733v-4.341h1.6a1.707,1.707,0,0,1,1.18.363,1.23,1.23,0,0,1,.4.959,1.188,1.188,0,0,1-.3.836,1.445,1.445,0,0,1-.865.418l1.189,1.765Zm-1.652-2.232h.81q.887,0,.887-.75a.722.722,0,0,0-.215-.556.964.964,0,0,0-.672-.2h-.81Z" transform="translate(-639.187 -180.051)" fill="#f2f2f2"/>
        <path id="路径_292" data-name="路径 292" d="M709.692,183.978h-1.916l-.347.941h-.784l1.671-4.273h.842l1.665,4.273h-.784Zm-.206-.541-.752-2.029-.752,2.029Z" transform="translate(-667.096 -180.523)" fill="#f2f2f2"/>
        <path id="路径_293" data-name="路径 293" d="M751.922,183.417a1.9,1.9,0,0,1-.816.759,2.817,2.817,0,0,1-1.283.271h-1.517v-4.341h1.517a2.849,2.849,0,0,1,1.283.267,1.885,1.885,0,0,1,.816.753,2.484,2.484,0,0,1,0,2.29Zm-.9-.009a1.7,1.7,0,0,0,0-2.275,1.776,1.776,0,0,0-1.253-.406h-.727v3.087h.727A1.776,1.776,0,0,0,751.019,183.408Z" transform="translate(-703.543 -180.051)" fill="#f2f2f2"/>
        <path id="路径_294" data-name="路径 294" d="M789.982,180.106v4.341h-.733v-4.341Z" transform="translate(-739.362 -180.051)" fill="#f2f2f2"/>
        <path id="路径_295" data-name="路径 295" d="M809.77,184.49h-.733l-2.2-3.2v3.2H806.1v-4.335h.733l2.2,3.216v-3.216h.733Z" transform="translate(-754.103 -180.094)" fill="#f2f2f2"/>
        <path id="路径_296" data-name="路径 296" d="M848.818,180.193a1.789,1.789,0,0,1,.714,1.039h-.771a1.194,1.194,0,0,0-.485-.56,1.491,1.491,0,0,0-.8-.209,1.524,1.524,0,0,0-.762.19,1.338,1.338,0,0,0-.527.541,1.705,1.705,0,0,0-.19.824,1.773,1.773,0,0,0,.193.855,1.308,1.308,0,0,0,.543.544,1.7,1.7,0,0,0,.813.188,1.473,1.473,0,0,0,.971-.335,1.4,1.4,0,0,0,.489-.919h-1.665v-.516h2.282v.67a2,2,0,0,1-1.1,1.494,2.288,2.288,0,0,1-1.051.234,2.364,2.364,0,0,1-1.17-.283,1.973,1.973,0,0,1-.784-.784,2.516,2.516,0,0,1,0-2.293,1.958,1.958,0,0,1,.781-.781,2.366,2.366,0,0,1,1.167-.28A2.284,2.284,0,0,1,848.818,180.193Z" transform="translate(-788.349 -179.793)" fill="#f2f2f2"/>
        <path id="路径_297" data-name="路径 297" d="M908.645,180.106v.566H906.7v1.346H908.3v.541H906.7v1.887h-.733v-4.341Z" transform="translate(-841.471 -180.051)" fill="#f2f2f2"/>
        <path id="路径_298" data-name="路径 298" d="M937,180.106v2.576a1.215,1.215,0,0,0,.267.861,1.125,1.125,0,0,0,1.492,0,1.216,1.216,0,0,0,.267-.861v-2.576h.733v2.576a1.631,1.631,0,0,1-1.755,1.808,1.742,1.742,0,0,1-1.26-.458,1.789,1.789,0,0,1-.476-1.35v-2.576Z" transform="translate(-867.986 -180.051)" fill="#f2f2f2"/>
        <path id="路径_299" data-name="路径 299" d="M975.395,180.106v.566h-1.266v3.775h-.74v-3.775h-1.26v-.566Z" transform="translate(-899.356 -180.051)" fill="#f2f2f2"/>
        <path id="路径_300" data-name="路径 300" d="M1006.972,180.106v2.576a1.216,1.216,0,0,0,.267.861,1.125,1.125,0,0,0,1.492,0,1.216,1.216,0,0,0,.267-.861v-2.576h.733v2.576a1.631,1.631,0,0,1-1.755,1.808,1.741,1.741,0,0,1-1.26-.458,1.789,1.789,0,0,1-.476-1.35v-2.576Z" transform="translate(-929.197 -180.051)" fill="#f2f2f2"/>
        <path id="路径_301" data-name="路径 301" d="M1047.254,184.447l-1.132-1.734h-.521v1.734h-.733v-4.341h1.6a1.706,1.706,0,0,1,1.18.363,1.23,1.23,0,0,1,.4.959,1.189,1.189,0,0,1-.3.836,1.445,1.445,0,0,1-.865.418l1.189,1.765Zm-1.652-2.232h.81q.887,0,.887-.75a.721.721,0,0,0-.215-.556.964.964,0,0,0-.672-.2h-.81Z" transform="translate(-962.993 -180.051)" fill="#f2f2f2"/>
        <path id="路径_302" data-name="路径 302" d="M1080.226,180.672v1.316h1.672v.541h-1.672v1.346h1.864v.572h-2.6v-4.341h2.6v.566Z" transform="translate(-993.284 -180.051)" fill="#f2f2f2"/>
      </g>
    </g>
  </g>
</svg>
